# xmcd
#
# Track frame offsets:
#	225
#	2922
#	17693
#	32105
#	45446
#	70975
#	92271
#	94552
#	100787
#	129119
#	152694
#	175638
#	192817
#	209944
#	222427
#	239317
#	260955
#	283038
#	296026
#
# Disc length: 4230 seconds
#
# Revision: 0
# Processed by: cddbd v1.5.2PL0 Copyright (c) Steve Scherf et al.
# Submitted via: EasyCDDAExtractor 12.0.6 .1
#
DISCID=0c108313
DTITLE=Dark Side Cowboys - Most
DYEAR=1900
DGENRE=
TTITLE0=Prologue
TTITLE1=Most
TTITLE2=D.V.S.K.H.
TTITLE3=Whenever We're Dancing (Alone)
TTITLE4=187 (How To)
TTITLE5=The Escape (Replayed 98)
TTITLE6=Manslaughter
TTITLE7=The Apocryphal (Returning)
TTITLE8=Tears For You (Delusions Of Grandeur)
TTITLE9=Deep (Attempted Suicide)
TTITLE10=Pride (Regret)
TTITLE11=Tears For You (Revival)
TTITLE12=Red Day (Shaft-Mix)
TTITLE13=Why You Smile (Grindmix)
TTITLE14=Stars (Nailgun)
TTITLE15=Creation (Ex-Speedition Edit)
TTITLE16=Black Sun ('Til The End)
TTITLE17=New Year's Day (970101)
TTITLE18=Future World
EXTD=
EXTT0=
EXTT1=
EXTT2=
EXTT3=
EXTT4=
EXTT5=
EXTT6=
EXTT7=
EXTT8=
EXTT9=
EXTT10=
EXTT11=
EXTT12=
EXTT13=
EXTT14=
EXTT15=
EXTT16=
EXTT17=
EXTT18=
PLAYORDER=
